<svg xmlns="http://www.w3.org/2000/svg" width="512" height="512" viewBox="0 0 512 512" version="1.1">
	<path d="M 233 1.115 C 147.334 8.690, 69.189 61.032, 29.381 137.500 C -9.560 212.304, -9.560 299.696, 29.381 374.500 C 61.113 435.454, 118.664 482.694, 184.155 501.545 C 292.948 532.858, 406.908 490.816, 470.012 396.085 C 482.857 376.804, 495.045 350.428, 501.545 327.845 C 505.877 312.793, 509.877 291.528, 510.692 279.214 C 511.030 274.107, 511.687 269.693, 512.153 269.405 C 512.619 269.117, 513 262.582, 513 254.882 C 513 247.182, 512.617 241.119, 512.149 241.408 C 511.680 241.698, 511.023 237.787, 510.687 232.717 C 509.326 212.154, 502.071 181.853, 493.452 160.736 C 480.517 129.045, 462.961 102.232, 439.040 77.633 C 385.290 22.361, 309.796 -5.675, 233 1.115 M 241.500 49.040 C 191.433 52.500, 145.457 73.564, 109.511 109.511 C 69.740 149.281, 48.788 199.827, 48.788 256 C 48.788 312.173, 69.740 362.719, 109.511 402.489 C 149.281 442.260, 199.827 463.212, 256 463.212 C 312.173 463.212, 362.719 442.260, 402.489 402.489 C 442.260 362.719, 463.212 312.173, 463.212 256 C 463.212 199.827, 442.260 149.281, 402.489 109.511 C 359.595 66.616, 301.721 44.877, 241.500 49.040 M 250.449 86.551 C 245.041 89.220, 244 92.353, 244 105.954 C 244 119.135, 244.912 122.402, 249.414 125.352 C 252.644 127.468, 259.356 127.468, 262.586 125.352 C 267.088 122.402, 268 119.135, 268 105.954 C 268 92.258, 266.944 89.150, 261.393 86.516 C 257.390 84.617, 254.349 84.626, 250.449 86.551 M 149.500 139.400 C 145.546 141.143, 141.051 145.717, 139.360 149.718 C 137.531 154.047, 137.642 161.381, 139.597 165.300 C 140.475 167.060, 160.224 187.625, 183.483 211 L 225.774 253.500 226.372 260.492 L 226.970 267.483 179.608 314.992 C 143.985 350.725, 132.120 363.217, 131.734 365.394 C 130.191 374.114, 137.896 381.806, 146.626 380.262 C 148.776 379.881, 161.400 367.891, 196.758 332.643 L 244.016 285.532 254.758 285.516 C 266.953 285.498, 270.470 284.226, 277.348 277.348 C 282.623 272.073, 285.130 266.754, 285.725 259.572 L 286.229 253.500 316.513 223 C 345.191 194.119, 346.851 192.246, 347.786 187.714 C 350.811 173.048, 338.952 161.189, 324.286 164.214 C 319.749 165.150, 317.910 166.785, 288.979 195.601 C 265.374 219.112, 257.895 226, 255.974 226 C 254.035 226, 244.295 216.788, 211.496 183.932 C 188.398 160.795, 167.830 140.995, 165.790 139.932 C 161.483 137.689, 153.942 137.443, 149.500 139.400 M 0.397 256 C 0.397 263.975, 0.553 267.238, 0.743 263.250 C 0.932 259.262, 0.932 252.738, 0.743 248.750 C 0.553 244.762, 0.397 248.025, 0.397 256 M 90.756 245.755 C 87.762 247.611, 85 252.527, 85 256 C 85 259.563, 87.816 264.460, 90.920 266.294 C 94.787 268.578, 116.619 268.765, 120.901 266.551 C 124.828 264.520, 127 260.763, 127 256 C 127 251.237, 124.828 247.480, 120.901 245.449 C 116.628 243.239, 94.450 243.464, 90.756 245.755 M 390.893 245.497 C 385.253 248.563, 383.111 257.187, 386.648 262.586 C 389.598 267.088, 392.865 268, 406.046 268 C 415.699 268, 418.784 267.650, 421.080 266.294 C 424.184 264.460, 427 259.563, 427 256 C 427 252.437, 424.184 247.540, 421.080 245.706 C 417.261 243.450, 394.943 243.295, 390.893 245.497 M 248.844 387.255 C 244.585 390.856, 244 393.121, 244 406.030 C 244 415.698, 244.350 418.784, 245.706 421.080 C 247.540 424.184, 252.437 427, 256 427 C 259.563 427, 264.460 424.184, 266.294 421.080 C 268.578 417.213, 268.765 395.381, 266.551 391.099 C 263.328 384.866, 254.052 382.852, 248.844 387.255" stroke="none" fill="black" fill-rule="evenodd"/>
</svg>